<?xml version="1.0" encoding="utf-8"?>
<!-- Generator: Adobe Illustrator 23.0.6, SVG Export Plug-In . SVG Version: 6.00 Build 0)  -->
<svg version="1.1" id="Layer_1" xmlns="http://www.w3.org/2000/svg" xmlns:xlink="http://www.w3.org/1999/xlink" x="0px" y="0px"
	 viewBox="0 0 30 30" style="enable-background:new 0 0 30 30;" xml:space="preserve">
<style type="text/css">
	.st0{fill:#FFFFFF;}
	.st1{fill:none;stroke:#000000;stroke-width:0.866;stroke-miterlimit:10;}
	.st2{fill:none;stroke:#000000;stroke-width:0.866;stroke-miterlimit:10;stroke-dasharray:2.2,2.2;}
	.st3{font-family:'MyriadPro-Regular';}
	.st4{font-size:12px;}
</style>
<g>
	<path class="st0" d="M3.7,27.5c-0.7,0-1.2-0.5-1.2-1.2V3.7C2.5,3,3,2.5,3.7,2.5h14.6c0.7,0,1.2,0.5,1.2,1.2v22.6
		c0,0.7-0.5,1.2-1.2,1.2H3.7z"/>
	<path d="M18.3,3C18.7,3,19,3.3,19,3.7v22.6c0,0.4-0.3,0.7-0.7,0.7H3.7C3.3,27,3,26.7,3,26.3V3.7C3,3.3,3.3,3,3.7,3H18.3 M18.3,2
		H3.7C2.8,2,2,2.8,2,3.7v22.6c0,1,0.8,1.7,1.7,1.7h14.6c1,0,1.7-0.8,1.7-1.7V3.7C20,2.8,19.2,2,18.3,2L18.3,2z"/>
</g>
<path d="M5.1,8H17c-0.1-0.3-0.1-0.7-0.1-1H5C5,7.3,5.1,7.7,5.1,8z"/>
<path d="M5.1,12H17c-0.1-0.3-0.1-0.7-0.1-1H5C5,11.3,5.1,11.7,5.1,12z"/>
<g>
	<g>
		<line class="st1" x1="4.5" y1="15.5" x2="5.5" y2="15.5"/>
		<line class="st2" x1="7.7" y1="15.5" x2="15.4" y2="15.5"/>
		<line class="st1" x1="16.5" y1="15.5" x2="17.5" y2="15.5"/>
	</g>
</g>
<text transform="matrix(1 0 0 1 22.2959 19.0222)" class="st3 st4">+</text>
</svg>
